<svg xmlns="http://www.w3.org/2000/svg" viewBox="325 865 268 275" fill="none">
<g fill="#3EB489"><path d="M586.73,999.24v54.93c0,44.3-35.93,80.18-80.18,80.18h-24.41l16.92-14.62c0,0,12.49-0.44,14.93-0.75c15.02-1.68,28.48-8.46,38.67-18.65c11.83-11.87,19.14-28.13,19.14-46.16v-54.93H586.73z"></path><path d="M419.05,1119.16l7.58,15.19h-15.02c-44.3,0-80.18-35.88-80.18-80.18v-54.93h14.88v54.93c0.04,18.03,7.31,34.29,19.14,46.16c10.19,10.19,23.61,16.97,38.67,18.65c2.44,0.31,4.96,0.44,7.49,0.44L419.05,1119.16z"></path><path d="M346.33,1006.7v-89.31h-7.46v7.46c14.35,0,28.12,5.64,38.35,15.7l81.84,80.48l81.84-80.48c10.23-10.06,24.01-15.7,38.35-15.7v-7.46h-7.46v89.31h14.91l0-96.77h-7.46c-18.26,0-35.79,7.18-48.81,19.98l-71.38,70.2l-71.38-70.2c-13.02-12.8-30.55-19.98-48.81-19.98h-7.46v96.77H346.33L346.33,1006.7z"></path><path d="M479.01,950.44l-5.27-5.27l-14.67,14.67l-14.67-14.67c-6.06-6.06-9.05-13.94-9.06-21.88c0.01-7.94,3.01-15.82,9.06-21.88l14.67-14.67l14.67,14.67c6.06,6.06,9.05,13.94,9.06,21.88c-0.01,7.94-3.01,15.82-9.06,21.88L479.01,950.44l5.27,5.27c8.94-8.93,13.44-20.71,13.43-32.42c0.01-11.71-4.49-23.49-13.43-32.42l-25.22-25.21l-25.21,25.21c-8.94,8.93-13.44,20.71-13.43,32.42c-0.01,11.71,4.49,23.49,13.43,32.42l25.21,25.21l25.21-25.21L479.01,950.44z"></path></g>
</svg>